<svg width="25" height="24" viewBox="0 0 25 24" fill="none" xmlns="http://www.w3.org/2000/svg"><path d="M22.5686 9.12124C22.4778 8.84129 22.3066 8.59424 22.0764 8.41087C21.8462 8.2275 21.5671 8.11591 21.2739 8.08999L15.7061 7.60999L13.5236 2.41999C13.41 2.14766 13.2183 1.91504 12.9728 1.75142C12.7272 1.5878 12.4387 1.50049 12.1436 1.50049C11.8485 1.50049 11.5601 1.5878 11.3145 1.75142C11.0689 1.91504 10.8773 2.14766 10.7636 2.41999L8.58769 7.60999L3.01331 8.0928C2.71897 8.11754 2.43848 8.22862 2.20702 8.41213C1.97556 8.59564 1.80343 8.8434 1.71222 9.12434C1.62101 9.40528 1.61478 9.7069 1.6943 9.99138C1.77383 10.2758 1.93557 10.5305 2.15925 10.7234L6.38831 14.4191L5.12081 19.9072C5.05379 20.1944 5.07291 20.495 5.17579 20.7713C5.27867 21.0477 5.46075 21.2877 5.69924 21.4611C5.93774 21.6346 6.22209 21.7339 6.51672 21.7467C6.81136 21.7594 7.10322 21.685 7.35581 21.5328L12.1371 18.6266L16.9286 21.5328C17.1812 21.685 17.4731 21.7594 17.7677 21.7467C18.0623 21.7339 18.3467 21.6346 18.5852 21.4611C18.8237 21.2877 19.0058 21.0477 19.1086 20.7713C19.2115 20.495 19.2306 20.1944 19.1636 19.9072L17.8971 14.4134L22.1252 10.7234C22.3488 10.5298 22.5103 10.2745 22.5892 9.98938C22.6681 9.70431 22.6609 9.40227 22.5686 9.12124Z" fill="#FFBC14"></path></svg>